<svg xmlns="http://www.w3.org/2000/svg" width="40" height="41" fill="none"><rect width="38" height="38" x="1" y="1.011" stroke="#062630" stroke-width="2" rx="3"/><path fill="#062630" d="M26.26 24.399c0 1.088-.272 2.048-.816 2.88-.528.832-1.256 1.48-2.184 1.944-.928.448-1.992.672-3.192.672-1.312 0-2.448-.232-3.408-.696a5.257 5.257 0 0 1-2.232-2.064c-.528-.912-.808-1.992-.84-3.24h2.616c.16 1.104.576 1.952 1.248 2.544.672.592 1.536.888 2.592.888.688 0 1.288-.128 1.8-.384a2.88 2.88 0 0 0 1.224-1.08c.288-.48.432-1.032.432-1.656 0-.944-.304-1.712-.912-2.304-.592-.592-1.384-.888-2.376-.888h-2.256V18.47h2.256c1.024 0 1.848-.272 2.472-.816.624-.544.936-1.248.936-2.112 0-.912-.32-1.648-.96-2.208-.624-.56-1.464-.84-2.52-.84-1.104 0-2 .312-2.688.936-.688.624-1.144 1.536-1.368 2.736h-2.616c.064-1.328.376-2.456.936-3.384a5.441 5.441 0 0 1 2.304-2.112c.976-.496 2.128-.744 3.456-.744 1.216 0 2.288.224 3.216.672.928.448 1.648 1.072 2.16 1.872.528.8.792 1.76.792 2.88 0 1.04-.28 1.928-.84 2.664-.544.736-1.272 1.224-2.184 1.464v.384c.896.24 1.608.768 2.136 1.584.544.8.816 1.784.816 2.952Z"/></svg>
