<svg xmlns="http://www.w3.org/2000/svg" width="41" height="41" fill="none"><rect width="38" height="38" x="1.5" y="1.011" stroke="#062630" stroke-width="2" rx="3"/><path fill="#062630" d="m14.64 25.455 6.696-5.016c.928-.688 1.608-1.392 2.04-2.112a4.614 4.614 0 0 0 .648-2.376c0-1.072-.304-1.912-.912-2.52-.608-.624-1.448-.936-2.52-.936-1.008 0-1.832.312-2.472.936-.64.624-1.088 1.536-1.344 2.736h-2.64c.064-1.296.384-2.408.96-3.336.592-.944 1.36-1.664 2.304-2.16.96-.496 2.024-.744 3.192-.744 1.248 0 2.328.256 3.24.768a5.324 5.324 0 0 1 2.16 2.088c.512.896.768 1.952.768 3.168 0 1.248-.32 2.408-.96 3.48-.64 1.072-1.608 2.08-2.904 3.024l-5.928 4.248v.24h9.408v2.568H14.64v-4.056Z"/></svg>
